<svg width="688" height="1102" viewBox="0 0 688 1102" fill="none" xmlns="http://www.w3.org/2000/svg">
<g clip-path="url(#clip0_1_41)">
<rect width="688" height="1102" fill="white"/>
<path d="M187.789 401.393L333.962 430.296L380.72 570.188L281.307 681.177L135.134 652.275L88.3755 512.382L187.789 401.393Z" fill="#D9D9D9" fill-opacity="0.6"/>
<path d="M131.633 702.86L277.806 731.763L324.564 871.655L225.151 982.645L78.9783 953.742L32.2196 813.85L131.633 702.86Z" fill="#D9D9D9" fill-opacity="0.6"/>
<path d="M-95.2108 496.393L50.9616 525.296L97.7203 665.188L-1.69343 776.177L-147.866 747.275L-194.625 607.382L-95.2108 496.393Z" fill="#D9D9D9" fill-opacity="0.6"/>
<path d="M595.789 -264.607L741.962 -235.704L788.72 -95.812L689.307 15.1774L543.134 -13.7255L496.375 -153.618L595.789 -264.607Z" fill="#D9D9D9" fill-opacity="0.6"/>
<path d="M533.789 14.3927L679.962 43.2956L726.72 183.188L627.307 294.177L481.134 265.275L434.375 125.382L533.789 14.3927Z" fill="#D9D9D9" fill-opacity="0.6"/>
<path d="M698.79 513.289L844.963 542.192L891.721 682.085L792.308 793.074L646.135 764.171L599.377 624.279L698.79 513.289Z" fill="#D9D9D9" fill-opacity="0.6"/>
<path d="M755.789 207.393L901.962 236.296L948.72 376.188L849.307 487.177L703.134 458.275L656.375 318.382L755.789 207.393Z" fill="#D9D9D9" fill-opacity="0.6"/>
<path d="M61.7892 990.393L207.962 1019.3L254.72 1159.19L155.307 1270.18L9.13417 1241.27L-37.6245 1101.38L61.7892 990.393Z" fill="#F7DA21" fill-opacity="0.6"/>
<path d="M580.789 1085.39L726.962 1114.3L773.72 1254.19L674.307 1365.18L528.134 1336.27L481.375 1196.38L580.789 1085.39Z" fill="#F7DA21" fill-opacity="0.6"/>
<path d="M355.368 899.054L501.54 927.957L548.299 1067.85L448.885 1178.84L302.713 1149.94L255.954 1010.04L355.368 899.054Z" fill="#D9D9D9" fill-opacity="0.6"/>
<path d="M472.834 307.295L619.007 336.198L665.765 476.09L566.351 587.079L420.179 558.176L373.42 418.284L472.834 307.295Z" fill="#F7DA21" fill-opacity="0.6"/>
<path d="M28.8496 -77.8219L175.022 -48.919L221.781 90.9733L122.367 201.963L-23.8054 173.06L-70.5641 33.1675L28.8496 -77.8219Z" fill="#F7DA21" fill-opacity="0.6"/>
</g>
<defs>
<clipPath id="clip0_1_41">
<rect width="688" height="1102" fill="white"/>
</clipPath>
</defs>
</svg>
